<svg width="94" height="93" viewBox="0 0 94 93" fill="none" xmlns="http://www.w3.org/2000/svg">
<path fill-rule="evenodd" clip-rule="evenodd" d="M16.3292 46.9822C11.1005 43.4555 6.18797 39.4844 1.64536 35.1123L1.64587 35.1118C1.16893 34.6654 0.284137 35.3063 0.704624 35.8579C5.23992 41.6154 10.761 46.519 17.0153 50.3444C28.0148 57.2595 40.4572 61.5893 53.418 63.0121C59.9256 63.7513 66.5045 63.7415 73.0259 62.9829C76.5245 62.5424 79.9925 61.8899 83.4109 61.03L83.4691 60.9894C84.8874 60.0041 86.3075 59.0236 87.7327 58.0507C88.6215 58.6671 89.7521 57.762 89.4059 56.9142C89.953 56.5444 90.5011 56.1759 91.0504 55.8089L92.1248 58.3483C89.2651 59.3942 86.3564 60.2891 83.4109 61.03L79.9107 63.4679C80.1516 63.4 80.4145 63.4615 80.5989 63.6396C80.8245 63.8574 80.8797 64.1988 80.7349 64.4805C80.1873 65.4207 79.5633 66.277 78.9321 67.1434C78.7195 67.4353 78.506 67.7283 78.2944 68.026L75.9795 66.3325C75.5608 66.7988 75.4717 67.4953 75.8005 68.0552C76.1967 68.7297 77.0581 68.9649 77.7516 68.588C79.0784 67.8218 80.3457 66.9558 81.5424 65.9976L85.1422 63.4595C87.5979 61.7321 90.037 59.9804 92.4597 58.2041C93.0506 57.8346 93.2921 57.0944 93.0304 56.4547C92.7639 55.8122 92.059 55.4735 91.3856 55.6645C90.6338 55.9611 89.8777 56.2452 89.1176 56.5166C87.6348 55.131 86.01 53.9057 84.2701 52.861C83.3593 52.3286 82.4132 51.859 81.4383 51.4557C80.6599 51.0107 79.7692 50.8008 78.8739 50.8515C78.6081 50.9271 78.3922 51.1215 78.2894 51.3781C78.1865 51.6347 78.2083 51.9244 78.3484 52.1627C78.9457 52.7882 79.6808 53.2657 80.4951 53.5571C81.2632 53.9482 82.0142 54.3747 82.766 54.8018C82.8286 54.8373 82.8911 54.8728 82.9536 54.9083C84.2583 55.644 85.5223 56.4491 86.7402 57.3201C81.4615 59.0045 76.0098 60.0874 70.4897 60.5443C57.7937 61.6582 45.0391 59.9405 33.1467 55.5152C27.2333 53.3113 21.5923 50.4491 16.3292 46.9822ZM78.351 64.4935C78.7925 64.1888 79.2422 63.8958 79.6995 63.615L79.9107 63.4679C79.8569 63.4831 79.8042 63.5047 79.7537 63.533C79.2672 63.8362 78.8042 64.1595 78.351 64.4935ZM78.351 64.4935C77.5265 65.0628 76.7304 65.6732 75.9661 66.3227L75.9795 66.3325C76.0653 66.237 76.1648 66.1512 76.2774 66.0782C76.5604 65.864 76.839 65.6483 77.1165 65.4335C77.5268 65.116 77.9348 64.8002 78.351 64.4935Z" fill="#8082A5"/>
</svg>
