<svg width="48" height="48" viewBox="0 0 48 48" fill="none" xmlns="http://www.w3.org/2000/svg">
<rect width="48" height="48" rx="4" fill="white"/>
<g clip-path="url(#clip0_46_61)">
<path d="M15 24C15 22.368 15.402 20.862 16.206 19.482C17.01 18.102 18.102 17.01 19.482 16.206C20.862 15.402 22.368 15 24 15C25.632 15 27.138 15.402 28.518 16.206C29.898 17.01 30.99 18.102 31.794 19.482C32.598 20.862 33 22.368 33 24C33 25.632 32.598 27.138 31.794 28.518C30.99 29.898 29.898 30.99 28.518 31.794C27.138 32.598 25.632 33 24 33C22.368 33 20.862 32.598 19.482 31.794C18.102 30.99 17.01 29.898 16.206 28.518C15.402 27.138 15 25.632 15 24ZM16.494 24C16.494 25.872 17.124 27.522 18.384 28.95C18.96 27.822 19.872 26.748 21.12 25.728C22.368 24.708 23.586 24.066 24.774 23.802C24.594 23.382 24.42 23.004 24.252 22.668C22.188 23.328 19.956 23.658 17.556 23.658C17.088 23.658 16.74 23.652 16.512 23.64C16.512 23.688 16.509 23.748 16.503 23.82C16.497 23.892 16.494 23.952 16.494 24ZM16.728 22.146C16.992 22.17 17.382 22.182 17.898 22.182C19.902 22.182 21.804 21.912 23.604 21.372C22.692 19.752 21.69 18.402 20.598 17.322C19.65 17.802 18.837 18.468 18.159 19.32C17.481 20.172 17.004 21.114 16.728 22.146ZM19.41 29.922C20.766 30.978 22.296 31.506 24 31.506C24.888 31.506 25.77 31.338 26.646 31.002C26.406 28.95 25.938 26.964 25.242 25.044C24.138 25.284 23.025 25.89 21.903 26.862C20.781 27.834 19.95 28.854 19.41 29.922ZM22.164 16.746C23.22 17.838 24.198 19.2 25.098 20.832C26.73 20.148 27.96 19.278 28.788 18.222C27.396 17.07 25.8 16.494 24 16.494C23.388 16.494 22.776 16.578 22.164 16.746ZM25.746 22.11C25.926 22.494 26.13 22.98 26.358 23.568C27.246 23.484 28.212 23.442 29.256 23.442C30 23.442 30.738 23.46 31.47 23.496C31.374 21.864 30.786 20.412 29.706 19.14C28.926 20.304 27.606 21.294 25.746 22.11ZM26.808 24.828C27.42 26.604 27.834 28.428 28.05 30.3C28.998 29.688 29.772 28.902 30.372 27.942C30.972 26.982 31.332 25.944 31.452 24.828C30.576 24.768 29.778 24.738 29.058 24.738C28.398 24.738 27.648 24.768 26.808 24.828Z" fill="#A53DFF"/>
</g>
<defs>
<clipPath id="clip0_46_61">
<rect width="18" height="18" fill="white" transform="translate(15 15)"/>
</clipPath>
</defs>
</svg>
