<svg width="48" height="48" viewBox="0 0 48 48" fill="none" xmlns="http://www.w3.org/2000/svg">
<rect width="48" height="48" rx="4" fill="#A53DFF"/>
<g clip-path="url(#clip0_46_67)">
<path d="M15 17.0907C15 16.4846 15.2027 15.9846 15.6081 15.5907C16.0135 15.1967 16.5405 14.9998 17.1892 14.9998C17.8263 14.9998 18.3417 15.1937 18.7355 15.5816C19.1409 15.9816 19.3436 16.5028 19.3436 17.1452C19.3436 17.727 19.1467 18.2119 18.7529 18.5997C18.3475 18.9997 17.8147 19.1997 17.1544 19.1997H17.1371C16.5 19.1997 15.9846 18.9997 15.5907 18.5997C15.1969 18.1998 15 17.6967 15 17.0907ZM15.2259 32.9997V20.8543H19.083V32.9997H15.2259ZM21.2201 32.9997H25.0772V26.2179C25.0772 25.7937 25.1236 25.4664 25.2162 25.2361C25.3784 24.824 25.6245 24.4755 25.9546 24.1906C26.2847 23.9058 26.6988 23.7634 27.1969 23.7634C28.4942 23.7634 29.1429 24.6785 29.1429 26.5088V32.9997H33V26.0361C33 24.2422 32.5946 22.8816 31.7838 21.9543C30.973 21.027 29.9016 20.5634 28.5695 20.5634C27.0753 20.5634 25.9112 21.2361 25.0772 22.5816V22.6179H25.0598L25.0772 22.5816V20.8543H21.2201C21.2432 21.2422 21.2548 22.4482 21.2548 24.4725C21.2548 26.4967 21.2432 29.3391 21.2201 32.9997Z" fill="white"/>
</g>
<defs>
<clipPath id="clip0_46_67">
<rect width="18" height="18" fill="white" transform="translate(15 15)"/>
</clipPath>
</defs>
</svg>
