<svg width="48" height="48" viewBox="0 0 48 48" fill="none" xmlns="http://www.w3.org/2000/svg">
<rect width="48" height="48" rx="4" fill="white"/>
<g clip-path="url(#clip0_46_64)">
<path d="M21.0005 24C21.0005 22.3432 22.3432 20.9998 24 20.9998C25.6568 20.9998 27.0002 22.3432 27.0002 24C27.0002 25.6568 25.6568 27.0002 24 27.0002C22.3432 27.0002 21.0005 25.6568 21.0005 24ZM19.3786 24C19.3786 26.5524 21.4476 28.6214 24 28.6214C26.5524 28.6214 28.6214 26.5524 28.6214 24C28.6214 21.4476 26.5524 19.3786 24 19.3786C21.4476 19.3786 19.3786 21.4476 19.3786 24ZM27.7243 19.1954C27.7243 19.7915 28.2078 20.2757 28.8046 20.2757C29.4007 20.2757 29.8849 19.7915 29.8849 19.1954C29.8849 18.5993 29.4015 18.1158 28.8046 18.1158C28.2078 18.1158 27.7243 18.5993 27.7243 19.1954ZM20.3637 31.3258C19.4862 31.2858 19.0093 31.1397 18.6923 31.0161C18.2721 30.8525 17.9726 30.6577 17.6571 30.3429C17.3423 30.0281 17.1468 29.7286 16.9839 29.3084C16.8603 28.9914 16.7142 28.5145 16.6742 27.6371C16.6306 26.6884 16.6219 26.4034 16.6219 24C16.6219 21.5966 16.6313 21.3124 16.6742 20.3629C16.7142 19.4855 16.8611 19.0093 16.9839 18.6916C17.1475 18.2714 17.3423 17.9719 17.6571 17.6564C17.9719 17.3416 18.2714 17.146 18.6923 16.9832C19.0093 16.8596 19.4862 16.7135 20.3637 16.6735C21.3124 16.6299 21.5973 16.6212 24 16.6212C26.4034 16.6212 26.6876 16.6306 27.6371 16.6735C28.5145 16.7135 28.9907 16.8603 29.3084 16.9832C29.7286 17.146 30.0281 17.3416 30.3436 17.6564C30.6584 17.9712 30.8532 18.2714 31.0168 18.6916C31.1404 19.0086 31.2865 19.4855 31.3265 20.3629C31.3701 21.3124 31.3788 21.5966 31.3788 24C31.3788 26.4027 31.3701 26.6876 31.3265 27.6371C31.2865 28.5145 31.1397 28.9914 31.0168 29.3084C30.8532 29.7286 30.6584 30.0281 30.3436 30.3429C30.0288 30.6577 29.7286 30.8525 29.3084 31.0161C28.9914 31.1397 28.5145 31.2858 27.6371 31.3258C26.6884 31.3694 26.4034 31.3781 24 31.3781C21.5973 31.3781 21.3124 31.3694 20.3637 31.3258ZM20.2895 15.0545C19.3313 15.0981 18.6771 15.2501 18.1049 15.4725C17.5132 15.7023 17.0116 16.0105 16.5107 16.5107C16.0105 17.0108 15.7023 17.5124 15.4725 18.1049C15.2501 18.6771 15.0981 19.3313 15.0545 20.2895C15.0102 21.2491 15 21.5559 15 24C15 26.4441 15.0102 26.7509 15.0545 27.7105C15.0981 28.6687 15.2501 29.3229 15.4725 29.8951C15.7023 30.4868 16.0098 30.9892 16.5107 31.4893C17.0108 31.9895 17.5124 32.297 18.1049 32.5275C18.6778 32.7499 19.3313 32.9019 20.2895 32.9455C21.2498 32.9891 21.5559 33 24 33C26.4448 33 26.7509 32.9898 27.7105 32.9455C28.6687 32.9019 29.3229 32.7499 29.8951 32.5275C30.4868 32.297 30.9885 31.9895 31.4893 31.4893C31.9895 30.9892 32.297 30.4868 32.5275 29.8951C32.7499 29.3229 32.9026 28.6687 32.9455 27.7105C32.9891 26.7502 32.9993 26.4441 32.9993 24C32.9993 21.5559 32.9891 21.2491 32.9455 20.2895C32.9019 19.3313 32.7499 18.6771 32.5275 18.1049C32.297 17.5132 31.9895 17.0116 31.4893 16.5107C30.9892 16.0105 30.4868 15.7023 29.8958 15.4725C29.3229 15.2501 28.6687 15.0974 27.7112 15.0545C26.7516 15.0109 26.4448 15 24.0007 15C21.5559 15 21.2498 15.0102 20.2895 15.0545Z" fill="#A53DFF"/>
</g>
<defs>
<clipPath id="clip0_46_64">
<rect width="18" height="18" fill="white" transform="translate(15 15)"/>
</clipPath>
</defs>
</svg>
