<svg width="30" height="29" viewBox="0 0 30 29" fill="none" xmlns="http://www.w3.org/2000/svg">
<rect y="1" width="28" height="28" rx="5" fill="#005BBC"/>
<path d="M5.7793 18.7637C6.37826 18.7702 7.0293 18.7799 7.73242 18.793C8.44206 18.7995 8.8457 18.8027 8.94336 18.8027H9.23633C10.4147 18.8027 11.1634 18.6986 11.4824 18.4902C11.8014 18.2819 12.0326 17.8783 12.1758 17.2793L13.0352 17.5234C12.8203 18.1159 12.638 18.7018 12.4883 19.2812C12.3451 19.8607 12.2344 20.4336 12.1562 21C10.9974 20.9479 10.0371 20.9121 9.27539 20.8926C8.52018 20.873 7.83659 20.8633 7.22461 20.8633C6.65169 20.8633 6.02344 20.873 5.33984 20.8926C4.66276 20.9121 3.83594 20.9479 2.85938 21L2.47852 20.1211C4.57487 18.4349 6.1862 16.8301 7.3125 15.3066C8.4388 13.7767 9.00195 12.4355 9.00195 11.2832C9.00195 10.4759 8.77409 9.83464 8.31836 9.35938C7.86914 8.8776 7.26367 8.63672 6.50195 8.63672C5.99414 8.63672 5.50911 8.80273 5.04688 9.13477C4.58464 9.46029 4.14193 9.95508 3.71875 10.6191L2.72266 10.0039C3.30859 8.9362 3.98893 8.13542 4.76367 7.60156C5.54492 7.06771 6.41732 6.80078 7.38086 6.80078C8.54622 6.80078 9.54232 7.20117 10.3691 8.00195C11.2025 8.79622 11.6191 9.75 11.6191 10.8633C11.6191 11.931 11.2122 13.0312 10.3984 14.1641C9.58464 15.2969 8.04492 16.8301 5.7793 18.7637ZM19.7148 8.06055C18.8685 8.06055 18.2402 8.50977 17.8301 9.4082C17.4199 10.3066 17.2148 11.6901 17.2148 13.5586C17.2148 15.7135 17.446 17.3379 17.9082 18.4316C18.3704 19.5189 19.0605 20.0625 19.9785 20.0625C20.8314 20.0625 21.4629 19.61 21.873 18.7051C22.2897 17.7936 22.498 16.4036 22.498 14.5352C22.498 12.4062 22.2637 10.7949 21.7949 9.70117C21.3262 8.60742 20.6328 8.06055 19.7148 8.06055ZM19.9102 6.78125C21.5117 6.78125 22.7682 7.39648 23.6797 8.62695C24.5977 9.85742 25.0566 11.5566 25.0566 13.7246C25.0566 16.0293 24.5618 17.875 23.5723 19.2617C22.5827 20.6484 21.2708 21.3418 19.6367 21.3418C18.1068 21.3418 16.8828 20.7168 15.9648 19.4668C15.0534 18.2103 14.5977 16.5208 14.5977 14.3984C14.5977 12.1523 15.0957 10.3229 16.0918 8.91016C17.0944 7.49089 18.3672 6.78125 19.9102 6.78125Z" fill="white"/>
</svg>
