<svg width="288" height="289" viewBox="0 0 288 289" fill="none" xmlns="http://www.w3.org/2000/svg">
<path d="M144 288.935C223.529 288.935 288 224.464 288 144.935C288 65.4056 223.529 0.93457 144 0.93457C64.471 0.93457 0 65.4056 0 144.935C0 224.464 64.471 288.935 144 288.935Z" fill="#F2F2F2"/>
<path d="M167.108 166.892C135.401 215.769 144.089 277.935 144.089 277.935C144.089 277.935 204.184 260.855 235.892 211.978C267.599 163.1 258.911 100.935 258.911 100.935C258.911 100.935 198.816 118.015 167.108 166.892Z" fill="#3F3D56"/>
<path d="M143.991 276.935C143.991 276.935 143.215 276.812 141.786 276.524C140.646 276.294 139.077 275.965 137.16 275.513C120.029 271.493 74.4849 257.904 44.7083 222.176C7.44007 177.438 9.00947 114.935 9.00947 114.935C9.00947 114.935 65.9938 124.15 103.543 164.326C105.17 166.052 106.753 167.841 108.292 169.694C140.72 208.62 143.743 260.995 143.983 273.942C144.016 275.883 143.991 276.935 143.991 276.935Z" fill="#222F65"/>
<path fill-rule="evenodd" clip-rule="evenodd" d="M120.892 166.892C152.599 215.769 143.911 277.935 143.911 277.935C143.911 277.935 83.816 260.855 52.1083 211.978C20.4009 163.1 29.0888 100.935 29.0888 100.935C29.0888 100.935 89.184 118.015 120.892 166.892Z" stroke="#3F3D56" stroke-width="2"/>
<path opacity="0.1" d="M144 274.991C143.16 276.006 142.419 276.873 141.81 277.582C140.459 279.126 139.693 279.935 139.693 279.935C139.693 279.935 138.763 278.763 137.199 276.567C128.61 264.566 100.984 221.894 103.117 172.603C103.232 170.019 103.422 167.463 103.685 164.935C105.307 166.668 106.886 168.465 108.42 170.325C140.747 209.406 143.761 261.991 144 274.991Z" fill="black"/>
<path d="M191.883 176.216C189.355 234.482 145.922 279.935 145.922 279.935C145.922 279.935 106.588 230.92 109.117 172.654C111.645 114.388 155.078 68.9346 155.078 68.9346C155.078 68.9346 194.412 117.95 191.883 176.216Z" fill="#222F65"/>
<path d="M146 277.935L155 70.9346" stroke="#3F3D56" stroke-width="2"/>
<path d="M205 186.935V30.9346" stroke="#3F3D56" stroke-width="2"/>
<path d="M205 42.9346C211.075 42.9346 216 38.0097 216 31.9346C216 25.8595 211.075 20.9346 205 20.9346C198.925 20.9346 194 25.8595 194 31.9346C194 38.0097 198.925 42.9346 205 42.9346Z" fill="#3F3D56"/>
<path d="M205 75.935C205 75.935 203.465 42.3466 172 46.2508L205 75.935Z" fill="#3F3D56"/>
</svg>
